<?xml version="1.0" standalone="no"?>
<!DOCTYPE svg PUBLIC "-//W3C//DTD SVG 20010904//EN"
 "http://www.w3.org/TR/2001/REC-SVG-20010904/DTD/svg10.dtd">
<svg version="1.0" xmlns="http://www.w3.org/2000/svg"
 width="500.000000pt" height="500.000000pt" viewBox="0 0 500.000000 500.000000"
 preserveAspectRatio="xMidYMid meet">
<metadata>
Created by potrace 1.14, written by Peter Selinger 2001-2017
</metadata>
<g transform="translate(0.000000,500.000000) scale(0.100000,-0.100000)"
fill="#000000" stroke="none">
<path d="M2470 3304 c-6 -14 -10 -47 -10 -73 l0 -48 -55 -12 c-162 -36 -290
-160 -334 -323 -9 -29 -12 -90 -10 -165 4 -113 6 -122 32 -156 57 -75 69 -77
403 -77 283 0 300 1 342 21 26 13 54 38 70 62 26 39 27 45 26 171 -1 110 -5
140 -23 188 -56 146 -189 258 -335 284 -17 3 -33 7 -35 10 -3 3 -6 32 -7 65
-1 65 -2 68 -33 74 -16 3 -24 -3 -31 -21z m184 -232 c72 -34 137 -98 171 -167
30 -61 36 -96 39 -203 3 -96 -10 -134 -54 -161 -29 -17 -53 -18 -318 -17 -255
1 -290 3 -313 19 -37 25 -50 77 -46 188 3 83 8 105 35 160 17 35 45 80 64 100
102 111 284 146 422 81z"/>
<path d="M2264 2874 c-74 -36 -76 -152 -2 -190 56 -29 124 -8 150 47 22 45 13
88 -27 127 -39 36 -72 40 -121 16z m86 -93 c0 -29 -25 -45 -49 -31 -25 13 -27
45 -4 59 23 12 53 -4 53 -28z"/>
<path d="M2634 2876 c-31 -14 -64 -67 -64 -103 0 -29 38 -83 66 -93 49 -19 84
-12 120 24 28 28 34 42 34 75 0 79 -82 131 -156 97z m76 -70 c0 -2 3 -11 6
-19 7 -20 -22 -46 -46 -40 -19 5 -28 42 -13 56 7 8 53 10 53 3z"/>
<path d="M1097 2230 c-29 -26 -31 -33 -33 -101 -3 -117 34 -158 139 -154 59 3
107 42 107 87 0 23 -4 28 -25 28 -17 0 -25 -5 -25 -18 0 -10 -5 -23 -12 -30
-16 -16 -103 -15 -115 1 -6 6 -11 39 -12 73 -3 71 10 87 69 87 44 0 70 -16 70
-43 0 -12 6 -17 18 -15 9 2 20 4 25 4 19 2 4 52 -25 80 -29 28 -37 31 -91 30
-50 -1 -65 -6 -90 -29z"/>
<path d="M1383 2253 c-10 -3 -13 -41 -13 -139 l0 -134 30 0 c30 0 30 1 30 55
0 60 -5 57 80 57 17 0 35 -1 40 -1 6 -1 10 -26 10 -56 0 -54 0 -55 30 -55 l30
0 0 134 0 134 -25 4 c-33 7 -35 3 -35 -54 l0 -48 -64 0 -65 0 -3 52 c-3 51
-13 62 -45 51z"/>
<path d="M1741 2248 c-10 -3 -28 -20 -40 -36 -18 -26 -21 -44 -21 -132 l0
-101 28 3 c25 3 27 6 26 46 l-1 42 72 0 72 0 -1 -42 c-1 -40 1 -43 27 -46 l27
-3 0 108 c-1 106 -1 108 -30 137 -25 25 -38 29 -85 30 -31 1 -64 -2 -74 -6z
m120 -64 c7 -9 14 -27 15 -40 1 -25 -3 -26 -91 -26 -47 0 -51 2 -50 25 3 47
15 57 65 57 32 0 52 -5 61 -16z"/>
<path d="M1993 2243 c-13 -35 2 -47 57 -48 l55 -1 2 -84 c1 -47 2 -95 2 -107
1 -18 7 -23 26 -23 30 0 27 -8 30 110 2 52 3 98 4 101 1 4 21 6 46 5 53 -2 67
5 72 33 3 25 14 23 -156 25 -95 1 -135 -2 -138 -11z"/>
<path d="M2376 2223 c-32 -31 -33 -35 -32 -107 2 -69 4 -78 31 -106 28 -29 31
-30 122 -30 l93 0 0 65 0 65 -75 0 c-73 0 -75 -1 -75 -25 0 -17 6 -25 18 -26
9 -1 28 -2 42 -3 48 -2 36 -21 -15 -22 -74 -1 -83 8 -83 83 0 72 10 83 75 83
42 0 63 -14 63 -42 0 -13 8 -18 25 -18 22 0 25 4 25 33 0 55 -36 80 -115 81
-61 1 -68 -1 -99 -31z"/>
<path d="M2722 2248 c-52 -14 -66 -40 -68 -129 -2 -76 -1 -80 28 -109 28 -29
33 -30 118 -30 64 0 89 4 93 13 11 30 -10 40 -87 41 -56 1 -79 5 -86 16 -21
33 -11 39 68 42 75 3 77 4 77 28 0 24 -3 25 -65 26 -85 2 -90 2 -90 13 0 28
34 41 105 41 75 0 93 10 75 41 -10 15 -118 20 -168 7z"/>
<path d="M2973 2250 c-17 -5 -19 -15 -18 -135 l0 -130 26 -3 c26 -3 27 -1 27
45 0 26 1 76 1 111 l1 62 53 0 c78 0 87 -14 87 -128 0 -91 0 -92 25 -92 15 0
25 6 26 15 1 22 1 142 -1 168 0 12 -14 37 -31 56 -30 32 -35 34 -104 35 -40 1
-81 -1 -92 -4z"/>
<path d="M3278 2252 c-16 -3 -18 -18 -18 -138 l0 -134 30 0 30 0 0 134 c0 139
-3 147 -42 138z"/>
<path d="M3393 2253 c-9 -3 -13 -35 -13 -112 0 -104 1 -108 28 -134 25 -24 36
-27 94 -27 61 0 69 3 97 30 l30 31 -2 107 c-2 112 -1 110 -46 103 -4 0 -8 -42
-7 -93 1 -54 -4 -97 -10 -107 -16 -21 -100 -24 -119 -4 -10 9 -14 34 -14 71 2
141 0 147 -38 135z"/>
<path d="M3742 2246 c-54 -31 -67 -92 -27 -131 21 -22 33 -25 90 -25 52 0 67
-3 72 -16 11 -29 -22 -42 -102 -40 l-75 2 0 -28 0 -28 89 0 c82 0 92 2 117 25
38 35 42 84 8 116 -21 20 -37 24 -87 25 -82 2 -79 1 -75 27 3 20 9 22 86 25
l83 3 -3 27 c-3 26 -4 26 -81 27 -43 0 -86 -4 -95 -9z"/>
</g>
</svg>
